<svg width="1024" height="1024" xmlns="http://www.w3.org/2000/svg">
 <defs>
  <linearGradient y2="0.2036" x2="0.27716" y1="0.97791" x1="0.68914" id="gradient_0">
   <stop stop-color="#C15C1C" offset="0"/>
   <stop stop-color="#DB7821" offset="1"/>
  </linearGradient>
 </defs>
 <g>
  <title>Layer 1</title>
  <path id="svg_2" d="m440.121,967.009l-159.398,0.071c-15.995,-0.024 -31.494,-1.004 -47.223,-4.09c-41.367,-8.116 -81.655,-29.804 -111.357,-59.721c-30.4802,-30.701 -51.775,-68.372 -61.2858,-110.67c-6.6491,-29.571 -4.5464,-59.794 -4.6016,-89.877c-0.0681,-37.117 -0.0577,-74.23 0.0369,-111.347c0.2671,-104.864 -0.919,-209.767 -0.1783,-314.625c0.415,-58.757 25.2387,-115.621 67.0928,-156.698c30.4,-29.8349 68.988,-49.4621 110.543,-58.307c30.246,-6.4377 60.266,-4.9918 90.951,-5.0738c34.619,-0.0925 69.238,-0.1013 103.857,-0.1055c72.3,-0.0087 144.599,-0.0321 216.899,-0.0044c35.378,0.0135 70.789,-0.325 106.164,0.0637c55.512,0.61 111.723,23.6869 150.687,63.523c27.126,27.733 48.034,62.138 58.126,99.774c3.261,12.158 5.723,24.609 6.816,37.157c1.609,18.466 0.827,37.097 0.827,55.612c0,21.181 0.118,42.362 0.135,63.543c0.026,33.261 -0.142,66.522 -0.12,99.783c0.013,20.035 0.343,40.08 0.112,60.114l-37.188,-36.213l-0.025,-0.305c0.32,-18.42 -0.107,-36.879 -0.165,-55.302c-0.088,-27.527 0.087,-55.055 0.14,-82.582c0.039,-20.62 0.028,-41.24 -0.101,-61.859c-0.117,-18.598 0.582,-37.513 -3.457,-55.789c-7.948,-35.956 -24.02,-68.128 -49.781,-94.705c-11.069,-11.42 -23.05,-21.587 -36.627,-29.935c-25.661,-15.776 -58.253,-25.0664 -88.321,-25.4539c-30.669,-0.3953 -61.365,-0.0194 -92.039,-0.1502c-89.682,-0.3826 -179.372,-0.4433 -269.053,0.0043c-24.178,0.1207 -48.369,0.2685 -72.546,0.0117c-23.976,-0.2546 -48.527,-2.069 -72.172,2.6963c-22.381,4.5108 -44.005,12.0258 -63.609,23.8928c-12.8,7.748 -24.328,17.214 -35.005,27.648c-34.239,33.458 -54.2663,81.394 -54.6841,129.16c-0.2642,30.2 0.1429,60.409 0.1403,90.61c-0.0065,75.351 0.0446,150.706 -0.0985,226.058c-0.0682,35.948 -0.0852,71.894 0.0116,107.843c0.031,11.518 0.1046,23.036 0.1853,34.554c0.0585,8.343 -0.1929,16.873 0.3884,25.187c0.5459,7.808 1.9323,15.602 3.5853,23.248c7.4127,34.288 25.5727,66.097 50.0627,91.065c33.923,34.586 80.986,53.927 129.221,54.228l123.787,0.008l0.43,0.009l38.837,36.949z" fill="#E7690E"/>
  <path id="svg_3" d="m400.854,930.051l-123.787,-0.008c-48.235,-0.301 -95.298,-19.642 -129.221,-54.228c-24.49,-24.968 -42.65,-56.777 -50.0627,-91.065c-1.653,-7.646 -3.0394,-15.44 -3.5853,-23.248c-0.5813,-8.314 -0.3299,-16.844 -0.3884,-25.187c-0.0807,-11.518 -0.1543,-23.036 -0.1853,-34.554c-0.0968,-35.949 -0.0798,-71.895 -0.0116,-107.843c0.1431,-75.352 0.092,-150.707 0.0985,-226.058c0.0026,-30.201 -0.4045,-60.41 -0.1403,-90.61c0.4178,-47.766 20.4451,-95.702 54.6841,-129.16c10.677,-10.434 22.205,-19.9 35.005,-27.648c19.604,-11.867 41.228,-19.382 63.609,-23.8928c23.645,-4.7653 48.196,-2.9509 72.172,-2.6963c24.177,0.2568 48.368,0.109 72.546,-0.0117c89.681,-0.4476 179.371,-0.3869 269.053,-0.0043c30.674,0.1308 61.37,-0.2451 92.039,0.1502c30.068,0.3875 62.66,9.6779 88.321,25.4539c13.577,8.348 25.558,18.515 36.627,29.935c25.761,26.577 41.833,58.749 49.781,94.705c4.039,18.276 3.34,37.191 3.457,55.789c0.129,20.619 0.14,41.239 0.101,61.859c-0.053,27.527 -0.228,55.055 -0.14,82.582c0.058,18.423 0.485,36.882 0.165,55.302c-12.032,-10.6 -22.99,-22.868 -34.355,-34.205c-36.672,-36.581 -73.617,-72.904 -110.143,-109.64c-15.402,-15.49 -30.479,-31.984 -46.743,-46.513c-1.404,-1.255 -3.26,-3.857 -4.813,-4.696c-0.433,-0.234 -0.948,-0.265 -1.421,-0.397c-4.194,-4.328 -8.036,-8.951 -12.279,-13.244c-11.72,-11.859 -24.162,-23.127 -37.237,-33.479c-55.605,-44.024 -129.22,-71.654 -200.25,-72.877c-20.153,-0.347 -40.471,0.307 -60.454,3.079c-64.869,8.999 -124.928,37.799 -175.308,79.084l-0.192,516.927l5.082,-0.108l-0.719,0.795c2.38,2.894 4.911,5.402 7.683,7.92l141.012,137.792z" fill="#ED9337"/>
  <path id="svg_4" d="m247.988,266.725c50.38,-41.285 110.439,-70.085 175.308,-79.084c19.983,-2.772 40.301,-3.426 60.454,-3.079c71.03,1.223 144.645,28.853 200.25,72.877c13.075,10.352 25.517,21.62 37.237,33.479c4.243,4.293 8.085,8.916 12.279,13.244c0.473,0.132 0.988,0.163 1.421,0.397c1.553,0.839 3.409,3.441 4.813,4.696c16.264,14.529 31.341,31.023 46.743,46.513c36.526,36.736 73.471,73.059 110.143,109.64c11.365,11.337 22.323,23.605 34.355,34.205l0.025,0.305l37.188,36.213c0.525,15.892 0.172,31.888 0.178,47.794c0.009,27.497 0.052,54.997 -0.081,82.493c-0.093,19.053 -0.156,38.102 -0.118,57.155c0.026,12.922 0.492,26.03 -0.343,38.927c-2.013,31.118 -11.849,62.028 -26.933,89.232c-9.116,16.442 -19.982,32.195 -32.875,45.931c-9.581,10.207 -20.054,18.676 -31.419,26.793c-36.215,25.864 -77.719,41.019 -122.399,42.437l-314.093,0.116l-38.837,-36.949l-0.43,-0.009l-141.012,-137.792c-2.772,-2.518 -5.303,-5.026 -7.683,-7.92l0.719,-0.795l-5.082,0.108l0.192,-516.927z" fill="url(#gradient_0)"/>
  <path id="svg_5" d="m252.878,783.544l40.367,0.053l9.301,0.165l-0.48,8.688l-42.224,-0.191c-2.772,-2.518 -5.303,-5.026 -7.683,-7.92l0.719,-0.795z" fill="#AD5214"/>
  <path id="svg_6" d="m494.708,634.046c12.666,5.468 25.478,10.569 38.18,15.945c6.439,2.725 13.922,6.961 20.689,8.446l-3.986,10.258c-13.668,-5.654 -27.328,-11.211 -41.091,-16.64c-5.842,-2.304 -11.737,-5.204 -17.753,-6.958c1.481,-3.45 3.893,-7.265 3.961,-11.051z" fill="#AD5214"/>
  <path id="svg_7" d="m662.795,679.475l0.403,0.775l-7.581,13.814c-0.858,3.936 -5.87,9.593 -8.263,12.982c-18.286,25.906 -39.079,46.395 -65.81,63.514c-26.549,17.004 -59.051,28.72 -90.099,33.491c-0.043,-7.444 -1.243,-65.793 0.055,-68.049l2.57,-0.496l0.012,55.699l10.418,-1.713c48.608,-8.537 95.087,-33.687 128.843,-69.775c7.555,-8.078 14.2,-17.001 20.569,-26.029l8.883,-14.213z" fill="#AD5214"/>
  <path id="svg_8" d="m778.792,693.485l1.067,1.265c-0.768,3.422 -2.61,6.583 -4.211,9.687c-3.11,6.031 -6.58,11.863 -10.146,17.633c-5.393,8.725 -10.771,17.567 -16.856,25.829c-25.068,34.038 -57.43,64.382 -93.167,86.98c-40.541,25.635 -84.899,42.058 -132.056,50.425c-10.447,1.853 -21.391,3.93 -32.003,4.342l-0.236,-66.977c1.088,-0.993 1.902,-0.946 3.33,-1.212l0.444,55.147c24.325,-2.092 47.943,-6.328 71.42,-13.061c68.493,-19.643 130.74,-60.436 175.924,-115.566c13.943,-17.011 25.834,-35.267 36.49,-54.492z" fill="#AD5214"/>
  <path id="svg_9" d="m398.559,541.212c13.637,-0.698 26.364,4.634 36.606,13.413c10.587,9.075 16.117,22.052 17.085,35.76c0.999,14.132 -3.892,27.767 -13.172,38.398c-10.159,11.638 -23.475,17.337 -38.702,18.405c-12.636,-0.234 -25.313,-4.094 -34.949,-12.595c-10.994,-9.699 -17.706,-22.994 -18.618,-37.645c-0.887,-14.259 4.799,-28.024 14.24,-38.528c9.804,-10.906 23.111,-16.394 37.51,-17.208z" fill="#FEFEFE"/>
  <path id="svg_10" d="m591.488,672.131l0.331,-0.135l62.093,21.692c-6.369,9.028 -13.014,17.951 -20.569,26.029c-33.756,36.088 -80.235,61.238 -128.843,69.775l-10.418,1.713l-0.012,-55.699l-0.058,-5.727c37.824,-7.797 73.071,-27.263 97.476,-57.648z" fill="#DDD8D2"/>
  <path id="svg_11" d="m931.016,499.918l37.188,36.213c0.525,15.892 0.172,31.888 0.178,47.794c0.009,27.497 0.052,54.997 -0.081,82.493c-0.093,19.053 -0.156,38.102 -0.118,57.155c0.026,12.922 0.492,26.03 -0.343,38.927c-2.013,31.118 -11.849,62.028 -26.933,89.232c-9.116,16.442 -19.982,32.195 -32.875,45.931c-9.581,10.207 -20.054,18.676 -31.419,26.793c-36.215,25.864 -77.719,41.019 -122.399,42.437l-314.093,0.116l-38.837,-36.949c10.666,-0.449 21.471,-0.108 32.15,-0.1c20.046,0.014 40.092,0.039 60.138,0.064c58.208,0.07 116.414,0.03 174.621,0.04c18.436,0.003 36.871,0.002 55.307,0.01c17.178,0.008 34.175,0.656 51.133,-2.643c17.538,-3.412 35.061,-8.562 51.173,-16.352c15.275,-7.386 29.648,-17.511 42.508,-28.519c27.404,-23.458 48.756,-58.725 57.508,-93.684c7.275,-29.064 5.177,-59.186 5.166,-88.906c-0.017,-45.103 -0.048,-90.207 -0.084,-135.31c-0.012,-13.935 -0.02,-27.87 -0.056,-41.805c-0.02,-7.407 -0.481,-15.072 0.123,-22.443l0.045,-0.494z" fill="#AD5214"/>
  <path id="svg_12" d="m247.988,266.725c50.38,-41.285 110.439,-70.085 175.308,-79.084c19.983,-2.772 40.301,-3.426 60.454,-3.079c71.03,1.223 144.645,28.853 200.25,72.877c13.075,10.352 25.517,21.62 37.237,33.479c4.243,4.293 8.085,8.916 12.279,13.244c9.664,11.633 18.904,23.248 27.229,35.883c43.63,66.215 64.532,144.742 57.253,223.84c-2.598,28.231 -8.704,56.555 -18.43,83.203c-5.834,15.984 -13.05,31.268 -20.776,46.397c-10.656,19.225 -22.547,37.481 -36.49,54.492c-45.184,55.13 -107.431,95.923 -175.924,115.566c-23.477,6.733 -47.095,10.969 -71.42,13.061l-0.444,-55.147l-0.006,-6.395l13.219,-1.002c64.321,-6.981 126.441,-38.528 171.597,-84.633c6.907,-7.052 13.046,-14.612 19.212,-22.308c4.638,-5.493 8.662,-11.726 12.66,-17.693c20.663,-30.834 34.227,-64.813 41.628,-101.112c1.737,-8.521 3.511,-17.35 4.023,-26.045c-0.59,-3.937 -0.382,-8.034 -0.375,-12.006c0.015,-7.695 0.34,-15.57 -0.156,-23.245c-2.152,-33.332 -11.88,-68.699 -26.603,-98.608c-34.113,-69.298 -93.39,-125.195 -167.031,-150.112c-66.079,-22.36 -139.9,-20.604 -204.54,6.009c-11.942,4.916 -23.667,10.663 -35.016,16.826c-5.544,3.01 -10.901,6.514 -16.551,9.298c-0.811,-3.301 0.508,-6.957 -1.517,-9.895c-0.963,4.733 -0.421,10.244 -0.425,15.081c-0.009,9.583 -0.002,19.167 -0.002,28.75c-0.001,38.129 0.294,76.266 0.119,114.394c0.479,0.604 0.871,1.053 0.966,1.852c0.347,2.942 0.047,6.205 0.048,9.193c0.004,6.074 0.002,12.148 -0.003,18.222c-0.002,1.877 -0.519,5.203 0.494,6.722c-0.008,4.454 -0.366,9.21 0.066,13.625l0.056,17.125c0.233,4.045 -0.417,8.127 0.121,12.167c-0.096,1.065 -0.157,1.943 -0.496,2.958c-1.014,3.044 0.226,7.185 0.299,10.335c0.19,8.264 0.183,16.538 0.224,24.805c0.092,18.718 -0.336,37.446 -0.228,56.154c0.058,9.94 0.669,19.886 0.785,29.831c0.454,39.023 0.645,78.042 0.647,117.07c0.001,1.517 0.544,4.059 -0.729,4.925l-2.398,0.052c-3.511,-0.735 -7.748,-0.253 -11.357,-0.2l-40.367,-0.053l-5.082,0.108l0.192,-516.927z" fill="#FEFEFE"/>
  <path id="svg_13" d="m304.75,458.761c0.479,0.604 0.871,1.053 0.966,1.852c0.347,2.942 0.047,6.205 0.048,9.193c0.004,6.074 0.002,12.148 -0.003,18.222c-0.002,1.877 -0.519,5.203 0.494,6.722c-0.008,4.454 -0.366,9.21 0.066,13.625l0.056,17.125c0.233,4.045 -0.417,8.127 0.121,12.167c-0.096,1.065 -0.157,1.943 -0.496,2.958c-1.014,3.044 0.226,7.185 0.299,10.335c0.19,8.264 0.183,16.538 0.224,24.805c0.092,18.718 -0.336,37.446 -0.228,56.154c0.058,9.94 0.669,19.886 0.785,29.831c0.454,39.023 0.645,78.042 0.647,117.07c0.001,1.517 0.544,4.059 -0.729,4.925l-2.398,0.052l0.148,-325.036z" fill="#AD5214"/>
  <path id="svg_14" d="m305.058,300.536c9.789,-6.821 19.843,-13.652 30.297,-19.405c38.127,-20.984 80.907,-33.409 124.449,-35.091c21.966,-0.849 43.876,1.191 65.488,5.055c13.068,2.336 25.463,6.095 37.977,10.447c58.014,20.18 107.941,59.031 143.118,109.23c33.366,47.616 51.718,104.558 51.646,162.683c-0.012,9.512 0.133,19.376 -1.186,28.814c-0.59,-3.937 -0.382,-8.034 -0.375,-12.006c0.015,-7.695 0.34,-15.57 -0.156,-23.245c-2.152,-33.332 -11.88,-68.699 -26.603,-98.608c-34.113,-69.298 -93.39,-125.195 -167.031,-150.112c-66.079,-22.36 -139.9,-20.604 -204.54,6.009c-11.942,4.916 -23.667,10.663 -35.016,16.826c-5.544,3.01 -10.901,6.514 -16.551,9.298c-0.811,-3.301 0.508,-6.957 -1.517,-9.895z" fill="#CD7B1D"/>
  <path id="svg_15" d="m306.575,310.431c5.65,-2.784 11.007,-6.288 16.551,-9.298c11.349,-6.163 23.074,-11.91 35.016,-16.826c64.64,-26.613 138.461,-28.369 204.54,-6.009c73.641,24.917 132.918,80.814 167.031,150.112c14.723,29.909 24.451,65.276 26.603,98.608c0.496,7.675 0.171,15.55 0.156,23.245c-0.007,3.972 -0.215,8.069 0.375,12.006c-0.512,8.695 -2.286,17.524 -4.023,26.045c-7.401,36.299 -20.965,70.278 -41.628,101.112c-3.998,5.967 -8.022,12.2 -12.66,17.693c-6.175,-1.923 -40.452,-9.856 -42.919,-13.055l7.581,-13.814l-0.403,-0.775l-8.883,14.213l-62.093,-21.692l-0.331,0.135l-37.347,-14.19l-0.564,0.496c-6.767,-1.485 -14.25,-5.721 -20.689,-8.446c-12.702,-5.376 -25.514,-10.477 -38.18,-15.945c0.759,-2.753 2.297,-5.386 3.397,-8.027c2.733,-6.558 5.16,-13.315 6.201,-20.369c-2.203,-2.18 -1.658,-7.47 -2.044,-10.509c-0.52,-4.095 -1.1,-8.222 -2,-12.254c-5.818,-26.045 -22.405,-46.865 -44.814,-60.963c-18.369,-11.557 -39.798,-16.23 -61.346,-14.386c-7.859,0.672 -15.702,2.326 -23.376,4.093c-0.072,-5.611 -0.289,-11.201 -0.437,-16.808c-0.1,-3.78 0.109,-7.829 -0.778,-11.515c-0.084,1.996 -0.27,3.971 0.123,5.942l-0.634,0c0.021,-2.603 -0.513,-6.059 0,-8.5l-0.375,-0.875c-0.949,-3.159 1.114,-8.767 -0.625,-11.375c0,-2.326 0.653,-8.27 -0.5,-10c0,-2.249 0.624,-7.814 -0.5,-9.5c0.008,-2.182 0.036,-4.331 -0.123,-6.5c-0.098,-1.341 -0.225,-5.723 0.248,-6.875c0.537,-1.307 2.454,-1.579 2.314,-3.297l-0.064,-2.08l-0.62,-0.748l-0.005,-1.255l-0.625,-0.247l-0.37,-0.748l1.622,-1.25l-0.375,-1.002l-0.688,-0.311c-0.913,-0.455 -1.082,-0.859 -1.814,-1.442c-0.487,-0.388 -0.904,-0.495 -1.5,-0.495c-0.993,-0.993 -1.658,-0.498 -2.569,-1.297c-0.965,-0.846 -1.739,-0.711 -2.931,-0.703l-0.875,-0.502c-1.089,0.138 -1.493,0.372 -2.5,0.627l-3,0l-0.625,-0.63l-0.398,0.307c-0.843,0.607 -0.078,0.103 -1.104,0.446l-0.873,0.377l-0.875,0.125l-0.625,0.375l-5.226,0.008c-0.7,0 -2.022,-0.245 -2.654,-0.133c-1.307,0.232 -0.655,0.781 -2.243,0.247c-0.213,-0.812 -0.245,-1.144 -0.109,-1.981c0.141,-0.865 0.084,-1.495 -0.393,-2.266l-0.508,-0.617c-0.634,-0.793 -0.701,-1.28 -0.867,-2.258l-0.625,-0.625l-0.93,0.383c-0.836,0.334 -1.294,0.467 -2.195,0.242l-0.75,0.5c-1.287,0 -1.499,-0.63 -2.625,-0.625l-0.755,-0.5c-1.095,0.611 -1.356,0.625 -2.62,0.625l-0.625,-0.63c-1.508,-0.427 -2.048,0.21 -3,-1.122l-0.625,0.375l-0.375,-0.748l-0.5,-0.5l-0.875,0.125l-0.5,-1.127l-0.625,0.002l-0.375,-0.875l-0.5,-1.128l-0.623,0.128l-0.752,-0.63l-1.005,0.255c0,1.748 0.448,4.578 -0.5,6l0,3.75c-1.149,0.763 -1.044,0.14 -2,0.5c-0.613,0.231 -1.523,1.248 -2,1.75c0,1.169 0.036,0.94 -0.5,2l-0.247,0.998l-0.748,0.247l-0.625,-0.62l0.12,1.125l-0.495,0.495c-0.443,-0.667 -0.775,-1.283 -1.125,-1.997c-0.096,1.606 0.042,2.933 0.12,4.502l-0.122,1.75c-0.145,2.858 0.743,12.452 -0.623,14.5c0,6.543 0,13.087 0,19.63c0,1.889 -0.492,5.882 0.5,7.37c0.019,5.842 0.035,11.684 0.032,17.526c-0.002,2.902 0.404,6.357 -0.488,9.135c-1.604,13.071 1.297,26.984 -0.546,40.006c-0.538,-4.04 0.112,-8.122 -0.121,-12.167l-0.056,-17.125c-0.432,-4.415 -0.074,-9.171 -0.066,-13.625c-1.013,-1.519 -0.496,-4.845 -0.494,-6.722c0.005,-6.074 0.007,-12.148 0.003,-18.222c-0.001,-2.988 0.299,-6.251 -0.048,-9.193c-0.095,-0.799 -0.487,-1.248 -0.966,-1.852c0.175,-38.128 -0.12,-76.265 -0.119,-114.394c0,-9.583 -0.007,-19.167 0.002,-28.75c0.004,-4.837 -0.538,-10.348 0.425,-15.081c2.025,2.938 0.706,6.594 1.517,9.895z" fill="#ED9337"/>
  <path id="svg_16" d="m305.058,300.536c2.025,2.938 0.706,6.594 1.517,9.895l0.469,187.23c-1.604,13.071 1.297,26.984 -0.546,40.006c-0.538,-4.04 0.112,-8.122 -0.121,-12.167l-0.056,-17.125c-0.432,-4.415 -0.074,-9.171 -0.066,-13.625c-1.013,-1.519 -0.496,-4.845 -0.494,-6.722c0.005,-6.074 0.007,-12.148 0.003,-18.222c-0.001,-2.988 0.299,-6.251 -0.048,-9.193c-0.095,-0.799 -0.487,-1.248 -0.966,-1.852c0.175,-38.128 -0.12,-76.265 -0.119,-114.394c0,-9.583 -0.007,-19.167 0.002,-28.75c0.004,-4.837 -0.538,-10.348 0.425,-15.081z" fill="#E7690E"/>
  <path id="svg_17" d="m367.845,395.098l-0.769,-74.848c0.97,-1.371 2.112,-1.503 3.657,-2.095l0.278,62.125c8.463,-3.1 17.017,-6.091 25.852,-7.949c38.105,-8.014 81.997,-2.889 117.301,13.539c47.688,22.191 87.723,61.693 105.852,111.63c10.818,29.799 12.135,59.899 8.77,91.119c-1.486,-6.406 -0.154,-14.693 -0.413,-21.372c-0.651,-16.813 -3.881,-33.551 -9.103,-49.525c-16.023,-49.013 -54.222,-87.77 -99.513,-110.929c-37.386,-19.117 -82.43,-27.307 -123.893,-19.563c-9.415,1.758 -18.901,4.925 -28.019,7.868z" fill="#CD7B1D"/>
  <path id="svg_18" d="m370.447,434.165l0.206,-3.043c2.256,-1.365 7.599,-1.297 10.334,-1.608c21.022,-2.398 41.207,-2.38 61.922,2.674c42.082,10.268 79.836,36.72 102.16,74.068c21.667,36.251 30.041,80.601 19.449,121.837l-10.377,29.848l-0.564,0.496c-6.767,-1.485 -14.25,-5.721 -20.689,-8.446c-12.702,-5.376 -25.514,-10.477 -38.18,-15.945c0.759,-2.753 2.297,-5.386 3.397,-8.027c2.733,-6.558 5.16,-13.315 6.201,-20.369c-2.203,-2.18 -1.658,-7.47 -2.044,-10.509c-0.52,-4.095 -1.1,-8.222 -2,-12.254c-5.818,-26.045 -22.405,-46.865 -44.814,-60.963c-18.369,-11.557 -39.798,-16.23 -61.346,-14.386c-7.859,0.672 -15.702,2.326 -23.376,4.093c-0.072,-5.611 -0.289,-11.201 -0.437,-16.808c-0.1,-3.78 0.109,-7.829 -0.778,-11.515l-1.923,-46.558c0.549,-1.404 1.629,-1.862 2.859,-2.585z" fill="#FEFEFE"/>
  <path id="svg_19" d="m370.447,434.165l2.155,63.012c7.698,-1.602 15.562,-3.1 23.42,-3.588c23.354,-1.451 46.748,4.114 66.387,17.034c20.903,13.751 36.982,35.969 41.834,60.675c2.151,10.953 2.198,23.384 0.063,34.352c-2.203,-2.18 -1.658,-7.47 -2.044,-10.509c-0.52,-4.095 -1.1,-8.222 -2,-12.254c-5.818,-26.045 -22.405,-46.865 -44.814,-60.963c-18.369,-11.557 -39.798,-16.23 -61.346,-14.386c-7.859,0.672 -15.702,2.326 -23.376,4.093c-0.072,-5.611 -0.289,-11.201 -0.437,-16.808c-0.1,-3.78 0.109,-7.829 -0.778,-11.515l-1.923,-46.558c0.549,-1.404 1.629,-1.862 2.859,-2.585z" fill="#AD5214"/>
  <path id="svg_20" d="m370.733,318.155l-0.08,-4.049c2.435,-1.747 6.782,-2.61 9.688,-3.437c10.849,-3.088 21.943,-4.363 33.159,-5.195c19.266,-1.429 38.829,-0.953 57.918,2.156c46.572,7.584 92.286,27.019 128.684,57.341c19.188,15.985 35.319,34.367 49.84,54.622c6.523,9.098 11.771,18.731 16.802,28.704c24.062,47.701 32.559,101.336 23.839,154.082c-4.567,27.621 -14.436,52.613 -27.788,77.096l-8.883,14.213l-62.093,-21.692c19.037,-24.535 32.321,-52.517 36.967,-83.377c3.365,-31.22 2.048,-61.32 -8.77,-91.119c-18.129,-49.937 -58.164,-89.439 -105.852,-111.63c-35.304,-16.428 -79.196,-21.553 -117.301,-13.539c-8.835,1.858 -17.389,4.849 -25.852,7.949l-0.278,-62.125z" fill="#FEFEFE"/>
 </g>
</svg>